<svg width="9" height="8" viewBox="0 0 9 8" fill="none" xmlns="http://www.w3.org/2000/svg">
<path fill-rule="evenodd" clip-rule="evenodd" d="M5.89013 3.76438C5.96043 3.82689 5.99993 3.91166 5.99993 4.00005C5.99993 4.08844 5.96043 4.17321 5.89013 4.23571L3.76876 6.12138C3.73416 6.15322 3.69278 6.17861 3.64703 6.19608C3.60128 6.21355 3.55207 6.22275 3.50228 6.22313C3.45249 6.22352 3.40311 6.21508 3.35702 6.19832C3.31094 6.18156 3.26907 6.15681 3.23386 6.12551C3.19865 6.09422 3.1708 6.057 3.15195 6.01603C3.13309 5.97507 3.1236 5.93117 3.12404 5.88691C3.12447 5.84265 3.13482 5.79891 3.15447 5.75825C3.17412 5.71758 3.20269 5.6808 3.23851 5.65005L5.09476 4.00005L3.23851 2.35005C3.1702 2.28718 3.1324 2.20298 3.13325 2.11558C3.13411 2.02818 3.17355 1.94458 3.24307 1.88278C3.3126 1.82097 3.40666 1.78592 3.50498 1.78516C3.6033 1.7844 3.69803 1.818 3.76876 1.87871L5.89013 3.76438Z" fill="white"/>
</svg>
