<svg width="12" height="12" viewBox="0 0 12 12" fill="none" xmlns="http://www.w3.org/2000/svg">
<path d="M5.5 8.5H6.5V5.5H5.5V8.5ZM6 4.5C6.14167 4.5 6.2605 4.452 6.3565 4.356C6.4525 4.26 6.50033 4.14133 6.5 4C6.49967 3.85867 6.45167 3.74 6.356 3.644C6.26033 3.548 6.14167 3.5 6 3.5C5.85833 3.5 5.73967 3.548 5.644 3.644C5.54833 3.74 5.50033 3.85867 5.5 4C5.49967 4.14133 5.54767 4.26017 5.644 4.3565C5.74033 4.45283 5.859 4.50067 6 4.5ZM6 11C5.30833 11 4.65833 10.8687 4.05 10.606C3.44167 10.3433 2.9125 9.98717 2.4625 9.5375C2.0125 9.08783 1.65633 8.55867 1.394 7.95C1.13167 7.34133 1.00033 6.69133 1 6C0.999667 5.30867 1.131 4.65867 1.394 4.05C1.657 3.44133 2.01317 2.91217 2.4625 2.4625C2.91183 2.01283 3.441 1.65667 4.05 1.394C4.659 1.13133 5.309 1 6 1C6.691 1 7.341 1.13133 7.95 1.394C8.559 1.65667 9.08817 2.01283 9.5375 2.4625C9.98683 2.91217 10.3432 3.44133 10.6065 4.05C10.8698 4.65867 11.001 5.30867 11 6C10.999 6.69133 10.8677 7.34133 10.606 7.95C10.3443 8.55867 9.98817 9.08783 9.5375 9.5375C9.08683 9.98717 8.55767 10.3435 7.95 10.6065C7.34233 10.8695 6.69233 11.0007 6 11Z" fill="white"/>
</svg>
