<svg width="12" height="12" viewBox="0 0 12 12" fill="none" xmlns="http://www.w3.org/2000/svg">
<path fill-rule="evenodd" clip-rule="evenodd" d="M6.93646 1.076C6.74173 1 6.49436 1 6.00015 1C5.50594 1 5.2591 1 5.06384 1.076C4.93536 1.12587 4.81853 1.19939 4.72007 1.29232C4.62162 1.38526 4.54348 1.49577 4.49015 1.6175C4.44068 1.729 4.42173 1.8595 4.41384 2.049C4.41008 2.18625 4.36966 2.32034 4.29638 2.43868C4.2231 2.55701 4.11935 2.65571 3.99489 2.7255C3.86792 2.79255 3.72518 2.82807 3.57991 2.82877C3.43464 2.82947 3.29153 2.79533 3.16384 2.7295C2.98595 2.6405 2.857 2.5915 2.72963 2.5755C2.45099 2.54096 2.16925 2.6121 1.94543 2.7735C1.77806 2.8945 1.65437 3.0965 1.40753 3.5C1.16017 3.9035 1.03701 4.105 1.00911 4.3025C0.972271 4.5655 1.04806 4.8315 1.21964 5.042C1.29753 5.138 1.40753 5.2185 1.57753 5.3195C1.82858 5.468 1.98964 5.721 1.98964 6C1.98964 6.279 1.82858 6.532 1.57806 6.68C1.40753 6.7815 1.29753 6.862 1.21911 6.958C1.13467 7.06211 1.07267 7.181 1.03663 7.30789C1.0006 7.43478 0.991248 7.56717 1.00911 7.6975C1.03701 7.8945 1.16017 8.0965 1.40753 8.5C1.6549 8.9035 1.77806 9.105 1.94543 9.2265C2.16858 9.388 2.45069 9.459 2.72963 9.4245C2.857 9.4085 2.98595 9.3595 3.16384 9.2705C3.29159 9.20459 3.4348 9.17039 3.58017 9.17109C3.72555 9.17179 3.86838 9.20736 3.99542 9.2745C4.25121 9.4145 4.40279 9.672 4.41384 9.951C4.42173 10.141 4.44068 10.271 4.49015 10.3825C4.59752 10.6275 4.80384 10.8225 5.06384 10.924C5.25857 11 5.50594 11 6.00015 11C6.49436 11 6.74173 11 6.93646 10.924C7.06494 10.8741 7.18177 10.8006 7.28023 10.7077C7.37868 10.6147 7.45682 10.5042 7.51014 10.3825C7.55962 10.271 7.57857 10.141 7.58646 9.951C7.59699 9.672 7.74909 9.414 8.00541 9.2745C8.13238 9.20745 8.27512 9.17193 8.42039 9.17123C8.56566 9.17053 8.70877 9.20467 8.83646 9.2705C9.01435 9.3595 9.1433 9.4085 9.27067 9.4245C9.54961 9.4595 9.83172 9.388 10.0549 9.2265C10.2222 9.1055 10.3459 8.9035 10.5928 8.5C10.8401 8.0965 10.9633 7.895 10.9912 7.6975C11.009 7.56714 10.9995 7.43473 10.9634 7.30784C10.9273 7.18095 10.8652 7.06207 10.7807 6.958C10.7028 6.862 10.5928 6.7815 10.4228 6.6805C10.1717 6.532 10.0107 6.279 10.0107 6C10.0107 5.721 10.1717 5.468 10.4222 5.32C10.5928 5.2185 10.7028 5.138 10.7812 5.042C10.8656 4.93789 10.9276 4.819 10.9637 4.69211C10.9997 4.56522 11.0091 4.43283 10.9912 4.3025C10.9633 4.1055 10.8401 3.9035 10.5928 3.5C10.3454 3.0965 10.2222 2.895 10.0549 2.7735C9.83105 2.6121 9.5493 2.54096 9.27067 2.5755C9.1433 2.5915 9.01435 2.6405 8.83646 2.7295C8.70871 2.79541 8.5655 2.82961 8.42013 2.82891C8.27475 2.82821 8.13192 2.79264 8.00488 2.7255C7.88052 2.65565 7.77688 2.55693 7.70369 2.43859C7.6305 2.32026 7.59016 2.1862 7.58646 2.049C7.57857 1.859 7.55962 1.729 7.51014 1.6175C7.45682 1.49577 7.37868 1.38526 7.28023 1.29232C7.18177 1.19939 7.06494 1.12587 6.93646 1.076ZM6.00015 7.5C6.87909 7.5 7.5912 6.8285 7.5912 6C7.5912 5.1715 6.87857 4.5 6.00015 4.5C5.12173 4.5 4.4091 5.1715 4.4091 6C4.4091 6.8285 5.12173 7.5 6.00015 7.5Z" fill="white"/>
</svg>
