<svg width="12" height="12" viewBox="0 0 12 12" fill="none" xmlns="http://www.w3.org/2000/svg">
<path d="M8.072 1.973C8.14542 1.86263 8.25967 1.78594 8.38962 1.75978C8.51957 1.73362 8.65459 1.76014 8.765 1.8335C9.45266 2.28938 10.0167 2.90851 10.4067 3.63556C10.7967 4.36261 11.0005 5.17495 11 6C11 8.7615 8.7615 11 6 11C3.2385 11 1 8.7615 1 6C0.99946 5.17495 1.2033 4.36261 1.5933 3.63556C1.98331 2.90851 2.54734 2.28938 3.235 1.8335C3.34546 1.7601 3.48056 1.73359 3.61057 1.7598C3.74058 1.78601 3.85485 1.86279 3.92825 1.97325C4.00165 2.08371 4.02816 2.21881 4.00195 2.34882C3.97574 2.47883 3.89896 2.5931 3.7885 2.6665C3.07252 3.14156 2.52854 3.83454 2.23711 4.64286C1.94567 5.45117 1.92227 6.33184 2.17036 7.1545C2.41846 7.97715 2.92486 8.69804 3.6146 9.21046C4.30434 9.72287 5.14075 9.99956 6 9.99956C6.85925 9.99956 7.69566 9.72287 8.3854 9.21046C9.07514 8.69804 9.58154 7.97715 9.82964 7.1545C10.0777 6.33184 10.0543 5.45117 9.76289 4.64286C9.47146 3.83454 8.92748 3.14156 8.2115 2.6665C8.15674 2.63018 8.10968 2.58343 8.07301 2.52891C8.03633 2.47439 8.01076 2.41317 7.99776 2.34877C7.98476 2.28436 7.98458 2.21802 7.99723 2.15354C8.00989 2.08907 8.03562 2.02772 8.072 1.973ZM6 1C6.12247 1.00002 6.24067 1.04498 6.33219 1.12636C6.4237 1.20774 6.48217 1.31987 6.4965 1.4415L6.5 1.5V6.5C6.49986 6.62744 6.45106 6.75002 6.36358 6.84268C6.27609 6.93535 6.15652 6.99112 6.0293 6.99859C5.90208 7.00605 5.77681 6.96466 5.67908 6.88287C5.58136 6.80107 5.51855 6.68505 5.5035 6.5585L5.5 6.5V1.5C5.5 1.36739 5.55268 1.24021 5.64645 1.14645C5.74022 1.05268 5.86739 1 6 1Z" fill="white"/>
</svg>
